:SAMPLES-PER-SECOND 30
:FRAME-RANGE 1-663
:FULLY-SPECIFIED
:DEGREES
228
root  -23.08 37.6092 116.509 -165.327 33.5236 -173.34
RightUpLeg  -16.8263 3.13854 -9.64994
RightLeg  41.0598 -7.89933 -7.58407
RightFoot  -17.6189 0.200524 5.83172
RightToes  -3.4386e-010 1.2921e-014 -6.02303e-014
Spine  2.01234 -2.06701 -2.83745
Spine1  5.68637 -2.31693 -0.284361
HEad  1.91929 -34.2684 10.6207
LeftShoulder1  1.7879 -5.47921 -13.6391
LeftArm  12.7565 -14.4409 -50.4595
LeftForeArm  -3.34569 -32.1267 -7.26346
LeftHand  0.0790544 1.37256 -2.54071
RightShoulder  2.34039 3.62802 27.8353
RightArm  -17.0546 9.91153 50.7897
RightForeArm  17.565 14.2287 6.47719
RightHand  -0.251152 3.38067 -3.56819
LeftUpLeg  -29.066 7.37912 9.29103
LeftLeg  28.703 5.75138 3.75621
LeftFoot  -9.37495 0.155095 -5.76218
LeftToes  -7.12384e-010 -7.51861e-011 -8.34901e-011
229
root  -23.4087 37.7042 115.919 -165.469 34.5543 -173.467
RightUpLeg  -17.8501 2.22742 -7.35526
RightLeg  41.2443 -6.36963 -6.22778
RightFoot  -18.5938 0.261824 6.11678
RightToes  -3.4386e-010 1.2921e-014 -6.02303e-014
Spine  1.7275 -2.27041 -3.28157
Spine1  5.85379 -2.56748 -0.00439269
HEad  3.49296 -35.3608 11.7889
LeftShoulder1  1.78691 -5.63206 -13.2434
LeftArm  12.7651 -14.3814 -50.2094
LeftForeArm  -3.7752 -31.9088 -7.229
LeftHand  0.101834 1.1617 -3.01297
RightShoulder  2.26305 3.33153 28.1831
RightArm  -16.9707 10.3132 51.2527
RightForeArm  17.5186 14.6443 6.31884
RightHand  -0.251609 3.18781 -3.64113
LeftUpLeg  -28.1452 6.97196 8.21374
LeftLeg  28.6879 6.92841 4.44534
LeftFoot  -9.96897 0.127983 -5.3917
LeftToes  -7.12384e-010 -7.51861e-011 -8.34901e-011
230
root  -23.7364 37.8206 115.369 -165.627 36.0929 -173.459
RightUpLeg  -18.6015 1.95578 -5.15682
RightLeg  39.8657 -4.99946 -4.7327
RightFoot  -19.0449 0.278005 6.04322
RightToes  -3.4386e-010 1.2921e-014 -6.02303e-014
Spine  1.8062 -2.35473 -3.58377
Spine1  5.67022 -2.76855 0.657513
HEad  5.97197 -36.7029 12.8138
LeftShoulder1  1.78673 -5.65491 -13.185
LeftArm  13.4519 -14.4387 -49.5852
LeftForeArm  -5.06957 -31.4702 -7.18285
LeftHand  0.12124 0.916093 -3.31821
RightShoulder  2.1707 3.04577 28.2591
RightArm  -17.5304 10.8458 52.2181
RightForeArm  18.6392 15.0398 6.0216
RightHand  -0.253592 2.90156 -3.77399
LeftUpLeg  -26.8532 7.14713 7.18922
LeftLeg  28.2432 8.05676 5.01896
LeftFoot  -10.459 0.0957746 -4.92643
LeftToes  -7.12384e-010 -7.51861e-011 -8.34901e-011
231
root  -24.0399 37.9539 114.877 -165.296 37.8367 -172.921
RightUpLeg  -19.2121 3.8198 -2.58235
RightLeg  36.9565 -5.18007 -4.42814
RightFoot  -19.4737 0.289351 5.92408
RightToes  -3.4386e-010 1.2921e-014 -6.02303e-014
Spine  1.85816 -2.56188 -3.56487
Spine1  5.40087 -3.13381 1.53128
HEad  9.09589 -38.0173 13.959
LeftShoulder1  1.76374 -5.50657 -13.2673
LeftArm  13.0048 -13.8143 -48.6954
LeftForeArm  -5.66157 -31.3237 -7.17587
LeftHand  0.127067 0.78223 -3.34946
RightShoulder  2.1186 2.89753 28.2314
RightArm  -18.7397 11.8143 53.6087
RightForeArm  20.9886 14.9864 5.74738
RightHand  -0.269121 2.75048 -4.05448
LeftUpLeg  -25.6618 6.73082 6.75516
LeftLeg  27.6529 10.0397 6.00991
LeftFoot  -10.7197 0.0905059 -4.84242
LeftToes  -7.12384e-010 -7.51861e-011 -8.34901e-011
232
root  -24.3215 38.1029 114.431 -164.85 39.5948 -172.145
RightUpLeg  -19.2844 5.29694 -0.122388
RightLeg  32.3109 -4.89033 -3.56528
RightFoot  -19.0384 0.279464 6.0387
RightToes  -3.4386e-010 1.2921e-014 -6.02303e-014
Spine  1.89439 -2.77166 -3.43701
Spine1  5.44413 -3.52606 2.45976
HEad  11.9953 -39.7718 15.47
LeftShoulder1  1.80208 -5.79056 -13.0431
LeftArm  11.6991 -12.6617 -47.735
LeftForeArm  -5.91475 -31.3354 -7.19225
LeftHand  0.13683 0.590126 -3.42547
RightShoulder  2.06756 2.66778 28.6994
RightArm  -18.8009 13.2175 54.4828
RightForeArm  22.6786 15.0957 5.62788
RightHand  -0.250887 2.5378 -3.88026
LeftUpLeg  -24.4195 6.73361 6.49249
LeftLeg  26.8723 11.7037 6.718
LeftFoot  -10.8072 0.0866411 -4.69434
LeftToes  -7.12384e-010 -7.51861e-011 -8.34901e-011
